<?xml version="1.0" encoding="UTF-8"?>
<svg width="64" height="64" viewBox="0 0 64 64" xmlns="http://www.w3.org/2000/svg">
  <!-- Boulder -->
  
  <!-- Main boulder shape -->
  <circle cx="32" cy="32" r="30" fill="#7f8c8d" />
  
  <!-- Boulder texture and cracks -->
  <path d="M20 15 Q32 5 44 15" stroke="#6c7a7a" stroke-width="2" fill="none" />
  <path d="M15 25 Q25 35 15 45" stroke="#6c7a7a" stroke-width="2" fill="none" />
  <path d="M32 10 L32 54" stroke="#6c7a7a" stroke-width="1" fill="none" />
  <path d="M10 32 L54 32" stroke="#6c7a7a" stroke-width="1" fill="none" />
  
  <!-- Cracks -->
  <path d="M32 32 L45 20" stroke="#5f6c6c" stroke-width="1" fill="none" />
  <path d="M32 32 L20 45" stroke="#5f6c6c" stroke-width="1" fill="none" />
  <path d="M32 32 L20 20" stroke="#5f6c6c" stroke-width="1" fill="none" />
  <path d="M32 32 L45 45" stroke="#5f6c6c" stroke-width="1" fill="none" />
  
  <!-- Surface details -->
  <circle cx="22" cy="22" r="3" fill="#6c7a7a" />
  <circle cx="42" cy="22" r="2" fill="#6c7a7a" />
  <circle cx="22" cy="42" r="2" fill="#6c7a7a" />
  <circle cx="42" cy="42" r="3" fill="#6c7a7a" />
  <circle cx="32" cy="32" r="4" fill="#6c7a7a" />
  
  <!-- Highlights -->
  <ellipse cx="24" cy="24" rx="12" ry="8" fill="#95a5a6" opacity="0.3" />
  
  <!-- Shadow -->
  <ellipse cx="32" cy="58" rx="24" ry="4" fill="#000" opacity="0.3" />
</svg> 