<svg xmlns="http://www.w3.org/2000/svg" viewBox="0 0 48 16">
  <!-- Dark water base -->
  <rect x="0" y="6" width="48" height="10" fill="#1A237E"/>
  
  <!-- Wave pattern on top -->
  <path d="M 0,6 C 3,3 6,9 9,6 C 12,3 15,9 18,6 C 21,3 24,9 27,6 C 30,3 33,9 36,6 C 39,3 42,9 45,6 C 48,3 51,9 54,6" 
        fill="none" stroke="#283593" stroke-width="1.5"/>
  
  <!-- Water highlights -->
  <path d="M 3,8 C 6,10 9,6 12,8 C 15,10 18,6 21,8 C 24,10 27,6 30,8 C 33,10 36,6 39,8" 
        fill="none" stroke="#3949AB" stroke-width="0.5"/>
  
  <!-- Water surface reflection -->
  <rect x="5" y="7" width="2" height="1" fill="#5C6BC0" opacity="0.6"/>
  <rect x="15" y="7" width="3" height="1" fill="#5C6BC0" opacity="0.6"/>
  <rect x="28" y="7" width="2" height="1" fill="#5C6BC0" opacity="0.6"/>
  <rect x="38" y="7" width="3" height="1" fill="#5C6BC0" opacity="0.6"/>
  
  <!-- Bubbles -->
  <circle cx="10" cy="12" r="1" fill="#3F51B5" opacity="0.6"/>
  <circle cx="25" cy="14" r="1" fill="#3F51B5" opacity="0.6"/>
  <circle cx="40" cy="13" r="1" fill="#3F51B5" opacity="0.6"/>
</svg>