<svg xmlns="http://www.w3.org/2000/svg" viewBox="0 0 500 200">
  <!-- Background cave shape -->
  <path d="M 20,180 C 50,120 100,150 150,100 C 200,50 300,50 350,100 C 400,150 450,120 480,180 Z" fill="#3E2723"/>
  <path d="M 30,170 C 60,120 100,140 150,95 C 200,45 300,45 350,95 C 400,140 440,120 470,170 Z" fill="#5D4037"/>
  
  <!-- Cave details -->
  <path d="M 50,130 L 40,170" stroke="#4E342E" stroke-width="3"/>
  <path d="M 80,110 L 70,160" stroke="#4E342E" stroke-width="3"/>
  <path d="M 420,130 L 430,170" stroke="#4E342E" stroke-width="3"/>
  <path d="M 390,110 L 400,160" stroke="#4E342E" stroke-width="3"/>
  
  <!-- Stalactites -->
  <polygon points="100,50 90,80 110,50" fill="#4E342E"/>
  <polygon points="200,50 190,70 210,50" fill="#4E342E"/>
  <polygon points="300,50 290,70 310,50" fill="#4E342E"/>
  <polygon points="400,50 390,80 410,50" fill="#4E342E"/>
  
  <!-- Title text shadow -->
  <text x="252" y="102" font-family="'Courier New', monospace" font-size="36" font-weight="bold" text-anchor="middle" fill="#3E2723">Chester Copperpot's</text>
  <text x="252" y="142" font-family="'Courier New', monospace" font-size="48" font-weight="bold" text-anchor="middle" fill="#3E2723">ADVENTURE</text>
  
  <!-- Title text -->
  <text x="250" y="100" font-family="'Courier New', monospace" font-size="36" font-weight="bold" text-anchor="middle" fill="#FFD700">Chester Copperpot's</text>
  <text x="250" y="140" font-family="'Courier New', monospace" font-size="48" font-weight="bold" text-anchor="middle" fill="#FFD700">ADVENTURE</text>
  
  <!-- Decorative elements -->
  <circle cx="90" cy="100" r="10" fill="#B87333"/> <!-- Copper coin -->
  <circle cx="410" cy="100" r="10" fill="#B87333"/> <!-- Copper coin -->
  
  <!-- Goonies 40th Anniversary text -->
  <text x="250" y="170" font-family="'Courier New', monospace" font-size="14" text-anchor="middle" fill="#FFFFFF">GOONIES 40th ANNIVERSARY EDITION</text>
  <text x="250" y="185" font-family="'Courier New', monospace" font-size="10" text-anchor="middle" fill="#FFFFFF">GooniesWeekend.com • June 5-8, 2025</text>
  
  <!-- Fedora hat silhouette -->
  <path d="M 240,60 C 230,55 220,60 240,65 C 260,70 270,65 260,60 C 255,55 250,55 240,60 Z" fill="#634114"/>
</svg>