<?xml version="1.0" encoding="UTF-8"?>
<svg width="40" height="40" viewBox="0 0 40 40" xmlns="http://www.w3.org/2000/svg">
  <!-- Gold Coin -->
  
  <!-- Outer ring -->
  <circle cx="20" cy="20" r="18" fill="#f39c12" />
  
  <!-- Inner coin -->
  <circle cx="20" cy="20" r="16" fill="#f1c40f" />
  
  <!-- Edge detail -->
  <circle cx="20" cy="20" r="16" stroke="#e67e22" stroke-width="1" fill="none" />
  
  <!-- Coin face -->
  <circle cx="20" cy="20" r="12" fill="#f39c12" />
  
  <!-- Coin details -->
  <path d="M20 10 L20 30" stroke="#e67e22" stroke-width="2" />
  <path d="M10 20 L30 20" stroke="#e67e22" stroke-width="2" />
  
  <!-- Shine effect -->
  <ellipse cx="14" cy="14" rx="4" ry="3" fill="#fff" opacity="0.5" transform="rotate(-30 14 14)" />
  
  <!-- Edge notches -->
  <path d="M20 2 L20 4" stroke="#e67e22" stroke-width="1" />
  <path d="M20 36 L20 38" stroke="#e67e22" stroke-width="1" />
  <path d="M2 20 L4 20" stroke="#e67e22" stroke-width="1" />
  <path d="M36 20 L38 20" stroke="#e67e22" stroke-width="1" />
  
  <path d="M6.5 6.5 L8 8" stroke="#e67e22" stroke-width="1" />
  <path d="M32 32 L33.5 33.5" stroke="#e67e22" stroke-width="1" />
  <path d="M6.5 33.5 L8 32" stroke="#e67e22" stroke-width="1" />
  <path d="M32 8 L33.5 6.5" stroke="#e67e22" stroke-width="1" />
</svg> 